<?xml version="1.0" encoding="UTF-8"?><!DOCTYPE svg PUBLIC "-//W3C//DTD SVG 1.1//EN"
    "http://www.w3.org/Graphics/SVG/1.1/DTD/svg11.dtd">
<svg xmlns="http://www.w3.org/2000/svg" xmlns:xlink="http://www.w3.org/1999/xlink" version="1.1"
    id="Layer_1" x="0px" y="0px" width="512px" height="512px" viewBox="0 0 512 512"
    xml:space="preserve"><path d="M32 384h272v32H32z" fill="#B6B6B6"/>
    <path d="M400 384h80v32h-80z" fill="#B6B6B6" />
    <path
        d="M384 447.5c0 17.949-14.327 32.5-32 32.5-17.673 0-32-14.551-32-32.5v-95c0-17.949 14.327-32.5 32-32.5 17.673 0 32 14.551 32 32.5v95z"
        fill="#B6B6B6" />
    <g><path d="M32 240h80v32H32z" fill="#B6B6B6"/>
        <path d="M208 240h272v32H208z" fill="#B6B6B6" />
        <path
            d="M192 303.5c0 17.949-14.327 32.5-32 32.5-17.673 0-32-14.551-32-32.5v-95c0-17.949 14.327-32.5 32-32.5 17.673 0 32 14.551 32 32.5v95z"
            fill="#B6B6B6" /></g>
    <g><path d="M32 96h272v32H32z" fill="#B6B6B6"/>
        <path d="M400 96h80v32h-80z" fill="#B6B6B6" />
        <path
            d="M384 159.5c0 17.949-14.327 32.5-32 32.5-17.673 0-32-14.551-32-32.5v-95c0-17.949 14.327-32.5 32-32.5 17.673 0 32 14.551 32 32.5v95z"
            fill="#B6B6B6" /></g>
   </svg>